<?xml version="1.0" encoding="UTF-8" standalone="no"?>
<svg
   xmlns:dc="http://purl.org/dc/elements/1.1/"
   xmlns:cc="http://creativecommons.org/ns#"
   xmlns:rdf="http://www.w3.org/1999/02/22-rdf-syntax-ns#"
   xmlns:svg="http://www.w3.org/2000/svg"
   xmlns="http://www.w3.org/2000/svg"
   viewBox="0 0 418.79999 664.84003"
   height="664.84003"
   width="418.79999"
   xml:space="preserve"
   id="svg2"
   version="1.1"><metadata
     id="metadata8"><rdf:RDF><cc:Work
         rdf:about=""><dc:format>image/svg+xml</dc:format><dc:type
           rdf:resource="http://purl.org/dc/dcmitype/StillImage" /></cc:Work></rdf:RDF></metadata><defs
     id="defs6" /><g
     transform="matrix(1.3333333,0,0,-1.3333333,0,664.84)"
     id="g10"><g
       transform="scale(0.1)"
       id="g12"><path
         id="path14"
         style="fill:#f8a69e;fill-opacity:1;fill-rule:nonzero;stroke:none"
         d="m 3105.98,3050.8 c 0,0 12.64,-52.85 -5.25,-183.64 -17.89,-130.79 -70.94,-273.92 -100.54,-370.16 -18.52,-55.53 -20.38,-58.14 -18.53,-66.93 1.86,-8.79 21.75,-52.29 29.15,-89.31 7.41,-37.01 5.1,-84.21 -10.63,-121.69 15.73,0 33.68,-1.84 45.52,-24.06 11.85,-22.21 16.01,-96.23 -21.01,-145.74 -37,-49.5 -71.71,-96.71 -155,-66.16 -19.43,-18.98 -36.02,-32.94 -80.01,-23.65 4.6,44 -80.08,856.5 -80.08,856.5 l 396.38,234.84" /><path
         id="path16"
         style="fill:none;stroke:#100f0d;stroke-width:11.10470009;stroke-linecap:round;stroke-linejoin:round;stroke-miterlimit:10;stroke-dasharray:none;stroke-opacity:1"
         d="m 3105.98,3050.8 c 0,0 12.64,-52.85 -5.25,-183.64 -17.89,-130.79 -70.94,-273.92 -100.54,-370.16 -18.52,-55.53 -20.38,-58.14 -18.53,-66.93 1.86,-8.79 21.75,-52.29 29.15,-89.31 7.41,-37.01 5.1,-84.21 -10.63,-121.69 15.73,0 33.68,-1.84 45.52,-24.06 11.85,-22.21 16.01,-96.23 -21.01,-145.74 -37,-49.5 -71.71,-96.71 -155,-66.16 -19.43,-18.98 -36.02,-32.94 -80.01,-23.65 4.6,44 -80.08,856.5 -80.08,856.5 z" /><path
         id="path18"
         style="fill:#2b622d;fill-opacity:1;fill-rule:nonzero;stroke:none"
         d="m 344.758,1926.96 c 0,0 -10.953,-55.98 35.933,-175.45 46.887,-119.45 119.684,-229.25 173.973,-309.46 54.289,-80.19 123.387,-117.21 90.078,-302.29 -33.32,-185.08 -70.332,-326.979 -70.332,-465.17 0,-138.188 11.098,-194.328 17.891,-236.899 6.785,-42.57 9.871,-61.699 15.426,-64.781 5.55,-3.09 14.183,-12.949 29.914,-15.73 21.289,-44.418 260.039,-97.16 260.039,-97.16 l 1549.11,228.57 37.94,104.57 c 0,0 -29.61,152.692 -42.57,234.129 -12.96,81.43 -31.46,299.831 -25.91,373.851 5.56,74.04 20.35,85.14 45.34,105.5 24.98,20.36 150.49,134.18 226.09,269.29 75.59,135.11 99.36,233.49 77.76,267.13 -39.19,38.25 -226.08,103.65 -226.08,103.65 l -1999.907,36.04 -194.695,-55.79" /><path
         id="path20"
         style="fill:none;stroke:#100f0d;stroke-width:11.10470009;stroke-linecap:round;stroke-linejoin:round;stroke-miterlimit:10;stroke-dasharray:none;stroke-opacity:1"
         d="m 344.758,1926.96 c 0,0 -10.953,-55.98 35.933,-175.45 46.887,-119.45 119.684,-229.25 173.973,-309.46 54.289,-80.19 123.387,-117.21 90.078,-302.29 -33.32,-185.08 -70.332,-326.979 -70.332,-465.17 0,-138.188 11.098,-194.328 17.891,-236.899 6.785,-42.57 9.871,-61.699 15.426,-64.781 5.55,-3.09 14.183,-12.949 29.914,-15.73 21.289,-44.418 260.039,-97.16 260.039,-97.16 l 1549.11,228.57 37.94,104.57 c 0,0 -29.61,152.692 -42.57,234.129 -12.96,81.43 -31.46,299.831 -25.91,373.851 5.56,74.04 20.35,85.14 45.34,105.5 24.98,20.36 150.49,134.18 226.09,269.29 75.59,135.11 99.36,233.49 77.76,267.13 -39.19,38.25 -226.08,103.65 -226.08,103.65 l -1999.907,36.04 z" /><path
         id="path22"
         style="fill:#f8a69e;fill-opacity:1;fill-rule:nonzero;stroke:none"
         d="m 942.094,3756.77 c 0,0 -7.399,190.02 0,308.46 7.41,118.46 34.554,483.68 234.436,713.18 199.89,229.5 742.79,75.26 742.79,75.26 0,0 16.03,-20.35 22.2,-82.66 7.41,-56.15 74.65,-91.93 74.65,-91.93 0,0 100.57,11.72 189.41,-31.46 88.83,-43.19 173.96,-127.09 203.58,-465.17 29.61,-338.08 0,-572.51 0,-572.51 l -429.38,-556.47 -742.79,347.95 -294.896,355.35" /><path
         id="path24"
         style="fill:none;stroke:#100f0d;stroke-width:11.10470009;stroke-linecap:round;stroke-linejoin:round;stroke-miterlimit:10;stroke-dasharray:none;stroke-opacity:1"
         d="m 942.094,3756.77 c 0,0 -7.399,190.02 0,308.46 7.41,118.46 34.554,483.68 234.436,713.18 199.89,229.5 742.79,75.26 742.79,75.26 0,0 16.03,-20.35 22.2,-82.66 7.41,-56.15 74.65,-91.93 74.65,-91.93 0,0 100.57,11.72 189.41,-31.46 88.83,-43.19 173.96,-127.09 203.58,-465.17 29.61,-338.08 0,-572.51 0,-572.51 l -429.38,-556.47 -742.79,347.95 z" /><path
         id="path26"
         style="fill:#7c2d1a;fill-opacity:1;fill-rule:nonzero;stroke:none"
         d="m 1146.44,4741.14 c 0,0 90.55,147.08 270.69,206.31 180.15,59.22 393.61,49.35 577.45,-112.28 -56.76,17.26 -134.49,46.88 -282.55,14.8 -148.07,-32.08 -288.72,-85.14 -428.15,-56.76 33.31,-39.48 55.52,-78.96 66.63,-113.51 11.1,-34.56 1.84,-44.42 -26.53,-38.87 -28.38,5.56 -68.48,14.19 -98.71,43.19 -38.25,20.97 -78.83,57.12 -78.83,57.12" /><path
         id="path28"
         style="fill:none;stroke:#100f0d;stroke-width:11.10470009;stroke-linecap:round;stroke-linejoin:round;stroke-miterlimit:10;stroke-dasharray:none;stroke-opacity:1"
         d="m 1146.44,4741.14 c 0,0 90.55,147.08 270.69,206.31 180.15,59.22 393.61,49.35 577.45,-112.28 -56.76,17.26 -134.49,46.88 -282.55,14.8 -148.07,-32.08 -288.72,-85.14 -428.15,-56.76 33.31,-39.48 55.52,-78.96 66.63,-113.51 11.1,-34.56 1.84,-44.42 -26.53,-38.87 -28.38,5.56 -68.48,14.19 -98.71,43.19 -38.25,20.97 -78.83,57.12 -78.83,57.12 z" /><path
         id="path30"
         style="fill:#f8a69e;fill-opacity:1;fill-rule:nonzero;stroke:none"
         d="m 1233.59,4662.73 c 0,0 13.89,45.35 -4.62,68.48 -18.51,23.13 -56.45,45.34 -88.22,6.48 -31.77,-38.87 -2.41,-107.65 48.92,-108.89" /><path
         id="path32"
         style="fill:none;stroke:#100f0d;stroke-width:11.10470009;stroke-linecap:round;stroke-linejoin:round;stroke-miterlimit:10;stroke-dasharray:none;stroke-opacity:1"
         d="m 1233.59,4662.73 c 0,0 13.89,45.35 -4.62,68.48 -18.51,23.13 -56.45,45.34 -88.22,6.48 -31.77,-38.87 -2.41,-107.65 48.92,-108.89" /><path
         id="path34"
         style="fill:none;stroke:#100f0d;stroke-width:11.10470009;stroke-linecap:round;stroke-linejoin:round;stroke-miterlimit:10;stroke-dasharray:none;stroke-opacity:1"
         d="m 1157.71,4716.09 c 0,0 23.76,9.88 33.63,-6.48 9.87,-16.34 8.02,-33.31 4.63,-42.25" /><path
         id="path36"
         style="fill:#ffffff;fill-opacity:1;fill-rule:nonzero;stroke:none"
         d="m 1693.89,4640.83 c 0,-76.18 -61.3,-137.92 -136.96,-137.92 -75.58,0 -136.96,61.74 -136.96,137.92 0,24.8 6.44,47.97 17.84,68.04 23.54,41.75 68.11,69.88 119.12,69.88 40.78,0 77.37,-17.91 102.39,-46.41 21.54,-24.29 34.57,-56.34 34.57,-91.51" /><path
         id="path38"
         style="fill:none;stroke:#100f0d;stroke-width:11.10470009;stroke-linecap:round;stroke-linejoin:round;stroke-miterlimit:10;stroke-dasharray:none;stroke-opacity:1"
         d="m 1693.89,4640.83 c 0,-76.18 -61.3,-137.92 -136.96,-137.92 -75.58,0 -136.96,61.74 -136.96,137.92 0,24.8 6.44,47.97 17.84,68.04 23.54,41.75 68.11,69.88 119.12,69.88 40.78,0 77.37,-17.91 102.39,-46.41 21.54,-24.29 34.57,-56.34 34.57,-91.51 z" /><path
         id="path40"
         style="fill:#ffffff;fill-opacity:1;fill-rule:nonzero;stroke:none"
         d="m 2042.05,4687.77 c 0,-71.15 -57.23,-128.82 -127.92,-128.82 -70.63,0 -127.93,57.67 -127.93,128.82 0,27.17 8.37,52.34 22.59,73.07 23.09,33.68 61.66,55.74 105.34,55.74 44.64,0 83.88,-22.95 106.75,-57.81 13.41,-20.36 21.17,-44.72 21.17,-71" /><path
         id="path42"
         style="fill:none;stroke:#100f0d;stroke-width:11.10470009;stroke-linecap:round;stroke-linejoin:round;stroke-miterlimit:10;stroke-dasharray:none;stroke-opacity:1"
         d="m 2042.05,4687.77 c 0,-71.15 -57.23,-128.82 -127.92,-128.82 -70.63,0 -127.93,57.67 -127.93,128.82 0,27.17 8.37,52.34 22.59,73.07 23.09,33.68 61.66,55.74 105.34,55.74 44.64,0 83.88,-22.95 106.75,-57.81 13.41,-20.36 21.17,-44.72 21.17,-71 z" /><path
         id="path44"
         style="fill:#f8a69e;fill-opacity:1;fill-rule:nonzero;stroke:none"
         d="m 1659.32,4732.34 c -106.98,-1.63 -187.45,-16.14 -221.51,-23.47 23.54,41.75 68.11,69.88 119.12,69.88 40.78,0 77.37,-17.91 102.39,-46.41" /><path
         id="path46"
         style="fill:none;stroke:#100f0d;stroke-width:11.10470009;stroke-linecap:round;stroke-linejoin:round;stroke-miterlimit:10;stroke-dasharray:none;stroke-opacity:1"
         d="m 1659.32,4732.34 c -106.98,-1.63 -187.45,-16.14 -221.51,-23.47 23.54,41.75 68.11,69.88 119.12,69.88 40.78,0 77.37,-17.91 102.39,-46.41 z" /><path
         id="path48"
         style="fill:#f8a69e;fill-opacity:1;fill-rule:nonzero;stroke:none"
         d="m 2020.88,4758.77 c -86.84,9.47 -172.64,5.02 -212.09,2.07 23.09,33.68 61.66,55.74 105.34,55.74 44.64,0 83.88,-22.95 106.75,-57.81" /><path
         id="path50"
         style="fill:none;stroke:#100f0d;stroke-width:11.10470009;stroke-linecap:round;stroke-linejoin:round;stroke-miterlimit:10;stroke-dasharray:none;stroke-opacity:1"
         d="m 2020.88,4758.77 c -86.84,9.47 -172.64,5.02 -212.09,2.07 23.09,33.68 61.66,55.74 105.34,55.74 44.64,0 83.88,-22.95 106.75,-57.81 z" /><path
         id="path52"
         style="fill:#100f0d;fill-opacity:1;fill-rule:nonzero;stroke:none"
         d="m 1548.56,4656.87 c 0,-10.23 -8.3,-18.53 -18.53,-18.53 -10.24,0 -18.53,8.3 -18.53,18.53 0,10.24 8.29,18.54 18.53,18.54 10.23,0 18.53,-8.3 18.53,-18.54" /><path
         id="path54"
         style="fill:#100f0d;fill-opacity:1;fill-rule:nonzero;stroke:none"
         d="m 1914.13,4698.21 c 0,-9.41 -7.63,-17.03 -17.02,-17.03 -9.41,0 -17.03,7.62 -17.03,17.03 0,9.4 7.62,17.02 17.03,17.02 9.39,0 17.02,-7.62 17.02,-17.02" /><path
         id="path56"
         style="fill:none;stroke:#100f0d;stroke-width:11.10470009;stroke-linecap:round;stroke-linejoin:round;stroke-miterlimit:10;stroke-dasharray:none;stroke-opacity:1"
         d="m 1686.89,4684.48 c 0,0 48.28,25.47 99.48,9.73" /><path
         id="path58"
         style="fill:none;stroke:#100f0d;stroke-width:11.10470009;stroke-linecap:round;stroke-linejoin:round;stroke-miterlimit:10;stroke-dasharray:none;stroke-opacity:1"
         d="m 1235.42,4719.05 184.55,-62.18" /><path
         id="path60"
         style="fill:#f8a69e;fill-opacity:1;fill-rule:nonzero;stroke:none"
         d="m 1768.16,4616.15 c 0,0 51.08,24.63 111.92,22.19 60.83,-2.45 114.5,-31.45 114.5,-98.69 0,-67.24 -50.59,-106.72 -128.31,-104.88 -77.73,1.86 -96.25,22.22 -119.7,35.79" /><path
         id="path62"
         style="fill:none;stroke:#100f0d;stroke-width:11.10470009;stroke-linecap:round;stroke-linejoin:round;stroke-miterlimit:10;stroke-dasharray:none;stroke-opacity:1"
         d="m 1768.16,4616.15 c 0,0 51.08,24.63 111.92,22.19 60.83,-2.45 114.5,-31.45 114.5,-98.69 0,-67.24 -50.59,-106.72 -128.31,-104.88 -77.73,1.86 -96.25,22.22 -119.7,35.79" /><path
         id="path64"
         style="fill:none;stroke:#100f0d;stroke-width:11.10470009;stroke-linecap:round;stroke-linejoin:round;stroke-miterlimit:10;stroke-dasharray:none;stroke-opacity:1"
         d="m 1433.48,4424.75 c 0,0 7.4,10.41 16.42,12.26 9.03,1.86 20.82,6.25 27.77,11.34" /><path
         id="path66"
         style="fill:none;stroke:#100f0d;stroke-width:11.10470009;stroke-linecap:round;stroke-linejoin:round;stroke-miterlimit:10;stroke-dasharray:none;stroke-opacity:1"
         d="m 1455.58,4438.41 c 0,0 37.13,-37.87 119.48,-64.71 82.36,-26.84 155.48,-43.8 300.45,-32.69 144.98,11.1 154.84,38.4 153.45,43.95 -1.38,5.55 -28.9,21.06 -39.32,30.08" /><path
         id="path68"
         style="fill:none;stroke:#100f0d;stroke-width:11.10470009;stroke-linecap:round;stroke-linejoin:round;stroke-miterlimit:10;stroke-dasharray:none;stroke-opacity:1"
         d="m 1977.58,4355.48 c 0,0 42.6,-14.94 75.45,-42.7 32.85,-27.76 35.62,-33.46 35.62,-36.86 0,-3.4 -24.67,-24.67 -49.65,-50.9 -24.99,-26.22 -66.01,-81.74 -79.9,-112.59 -13.88,-30.84 -12.33,-30.23 -6.79,-31.16 5.56,-0.92 57.69,-2.46 86.38,-30.84 28.68,-28.38 56.46,-63.55 54.9,-125.24 -1.54,-61.69 -53.51,-142.66 -147.44,-140.35 -93.92,2.31 -124.62,64.16 -124.62,64.16" /><path
         id="path70"
         style="fill:none;stroke:#100f0d;stroke-width:11.10470009;stroke-linecap:round;stroke-linejoin:round;stroke-miterlimit:10;stroke-dasharray:none;stroke-opacity:1"
         d="m 1824.61,3859.8 c 0,0 -19.43,-45.35 -61.69,-64.78 -42.26,-19.43 -113.51,-31.77 -164.4,10.49 -50.9,42.26 -66.64,96.86 -43.81,160.71" /><path
         id="path72"
         style="fill:none;stroke:#100f0d;stroke-width:11.10470009;stroke-linecap:round;stroke-linejoin:round;stroke-miterlimit:10;stroke-dasharray:none;stroke-opacity:1"
         d="m 2723.76,2830.39 c 0,0 85.78,20.73 127.42,58.67" /><path
         id="path74"
         style="fill:none;stroke:#100f0d;stroke-width:11.10470009;stroke-linecap:round;stroke-linejoin:round;stroke-miterlimit:10;stroke-dasharray:none;stroke-opacity:1"
         d="m 49.4063,2911.58 c 0,0 -4.0118,-7.72 -8.3282,-16.05" /><path
         id="path76"
         style="fill:#141212;fill-opacity:1;fill-rule:nonzero;stroke:none"
         d="m 272.113,2065.78 c 0,0 18.508,-95.32 43.184,-105.04 33.933,25.44 47.5,93.3 47.5,93.3 l -90.684,11.74" /><path
         id="path78"
         style="fill:none;stroke:#100f0d;stroke-width:11.10470009;stroke-linecap:round;stroke-linejoin:round;stroke-miterlimit:10;stroke-dasharray:none;stroke-opacity:1"
         d="m 272.113,2065.78 c 0,0 18.508,-95.32 43.184,-105.04 33.933,25.44 47.5,93.3 47.5,93.3 z" /><path
         id="path80"
         style="fill:#141212;fill-opacity:1;fill-rule:nonzero;stroke:none"
         d="m 540.055,1830.62 c 0,0 -1.348,-21.02 0,-40 12.914,-6.47 121.648,-67.09 235.008,-97.17 113.359,-30.07 328.517,-97.63 543.207,-112.42 0,44.88 -1.23,95.41 11.18,149.95 -64.85,42.52 -507.04,191.04 -507.04,191.04 l -255.402,-64.15 -26.953,-27.25" /><path
         id="path82"
         style="fill:none;stroke:#100f0d;stroke-width:11.10470009;stroke-linecap:round;stroke-linejoin:round;stroke-miterlimit:10;stroke-dasharray:none;stroke-opacity:1"
         d="m 540.055,1830.62 c 0,0 -1.348,-21.02 0,-40 12.914,-6.47 121.648,-67.09 235.008,-97.17 113.359,-30.07 328.517,-97.63 543.207,-112.42 0,44.88 -1.23,95.41 11.18,149.95 -64.85,42.52 -507.04,191.04 -507.04,191.04 l -255.402,-64.15 z" /><path
         id="path84"
         style="fill:#141212;fill-opacity:1;fill-rule:nonzero;stroke:none"
         d="m 1439.09,1721.75 c 0,0 -11.16,-101.87 -4.69,-153.22 42.57,-4.63 256.65,-19.14 434.33,-12.96 177.68,6.17 372.63,8.64 644.07,125.85 2.46,59.22 -4.95,152.99 -6.18,161.64 -119.67,-23.45 -1056.17,-99.95 -1056.17,-99.95 l -11.36,-21.36" /><path
         id="path86"
         style="fill:none;stroke:#100f0d;stroke-width:11.10470009;stroke-linecap:round;stroke-linejoin:round;stroke-miterlimit:10;stroke-dasharray:none;stroke-opacity:1"
         d="m 1439.09,1721.75 c 0,0 -11.16,-101.87 -4.69,-153.22 42.57,-4.63 256.65,-19.14 434.33,-12.96 177.68,6.17 372.63,8.64 644.07,125.85 2.46,59.22 -4.95,152.99 -6.18,161.64 -119.67,-23.45 -1056.17,-99.95 -1056.17,-99.95 z" /><path
         id="path88"
         style="fill:#141212;fill-opacity:1;fill-rule:nonzero;stroke:none"
         d="m 2598.67,1850.48 c 0,0 8.53,-61.72 3.6,-120.94 48.73,27.76 109.19,65.39 138.18,90.07 28.99,24.68 29,27.15 31.47,38.87 2.46,11.72 6.79,80.82 3.7,109.2 -39.49,-27.77 -176.95,-117.2 -176.95,-117.2" /><path
         id="path90"
         style="fill:none;stroke:#100f0d;stroke-width:11.10470009;stroke-linecap:round;stroke-linejoin:round;stroke-miterlimit:10;stroke-dasharray:none;stroke-opacity:1"
         d="m 2598.67,1850.48 c 0,0 8.53,-61.72 3.6,-120.94 48.73,27.76 109.19,65.39 138.18,90.07 28.99,24.68 29,27.15 31.47,38.87 2.46,11.72 6.79,80.82 3.7,109.2 -39.49,-27.77 -176.95,-117.2 -176.95,-117.2 z" /><path
         id="path92"
         style="fill:none;stroke:#100f0d;stroke-width:11.10470009;stroke-linecap:round;stroke-linejoin:round;stroke-miterlimit:10;stroke-dasharray:none;stroke-opacity:1"
         d="m 449.656,1870.43 c 0,0 0.133,-31.16 4.449,-57.64" /><path
         id="path94"
         style="fill:none;stroke:#100f0d;stroke-width:11.10470009;stroke-linecap:round;stroke-linejoin:round;stroke-miterlimit:10;stroke-dasharray:none;stroke-opacity:1"
         d="m 540.055,1790.62 c 0,0 -0.657,-8.1 0,-14.35" /><path
         id="path96"
         style="fill:none;stroke:#100f0d;stroke-width:11.10470009;stroke-linecap:round;stroke-linejoin:round;stroke-miterlimit:10;stroke-dasharray:none;stroke-opacity:1"
         d="m 1318.27,1581.03 c 0,0 -0.23,-24.3 3.23,-38.41" /><path
         id="path98"
         style="fill:none;stroke:#100f0d;stroke-width:11.10470009;stroke-linecap:round;stroke-linejoin:round;stroke-miterlimit:10;stroke-dasharray:none;stroke-opacity:1"
         d="m 1434.4,1568.53 c 0,0 1.4,-23.14 3.71,-38.18" /><path
         id="path100"
         style="fill:none;stroke:#100f0d;stroke-width:11.10470009;stroke-linecap:round;stroke-linejoin:round;stroke-miterlimit:10;stroke-dasharray:none;stroke-opacity:1"
         d="m 2512.8,1681.42 c 0,0 -0.92,-22.51 -4.63,-36.4" /><path
         id="path102"
         style="fill:none;stroke:#100f0d;stroke-width:11.10470009;stroke-linecap:round;stroke-linejoin:round;stroke-miterlimit:10;stroke-dasharray:none;stroke-opacity:1"
         d="m 2602.27,1729.54 c 0,0 -1.25,-18.81 -5.57,-41.33" /><path
         id="path104"
         style="fill:#f79113;fill-opacity:1;fill-rule:nonzero;stroke:none"
         d="m 2046.09,1751.51 c 0,0 -126.77,-6.24 -116.6,-123.77 6.49,-83.27 155.51,-78.89 220.27,-73.68 64.75,5.21 188.76,69.37 168.4,154.81 -20.37,85.45 -122.15,67.87 -160.09,71.57 -37.95,3.71 -111.98,-28.93 -111.98,-28.93" /><path
         id="path106"
         style="fill:none;stroke:#100f0d;stroke-width:11.10470009;stroke-linecap:round;stroke-linejoin:round;stroke-miterlimit:10;stroke-dasharray:none;stroke-opacity:1"
         d="m 2046.09,1751.51 c 0,0 -126.77,-6.24 -116.6,-123.77 6.49,-83.27 155.51,-78.89 220.27,-73.68 64.75,5.21 188.76,69.37 168.4,154.81 -20.37,85.45 -122.15,67.87 -160.09,71.57 -37.95,3.71 -111.98,-28.93 -111.98,-28.93 z" /><path
         id="path108"
         style="fill:none;stroke:#100f0d;stroke-width:11.10470009;stroke-linecap:round;stroke-linejoin:round;stroke-miterlimit:10;stroke-dasharray:none;stroke-opacity:1"
         d="m 1928.92,1227.36 c 0,0 -110.79,-79.58 -176.18,-96.24 -65.4,-16.65 -97.47,-19.12 -99.95,-25.91 -2.46,-6.78 -10.49,-80.19 -13.56,-133.249 -3.09,-53.063 1.24,-287.5 25.91,-492.941" /><path
         id="path110"
         style="fill:#47241a;fill-opacity:1;fill-rule:nonzero;stroke:none"
         d="m 1748.98,415.93 c 0,0 71.63,4.48 108.64,31.011 37.02,26.528 155.47,127.098 252.32,157.938 96.86,30.84 228.26,61.703 355.97,-7.399 127.7,-69.109 179.53,-124.628 210.99,-200.511 9.88,-27.758 12.35,-66.617 9.88,-110.43 -2.48,-43.801 -6.17,-65.391 -23.45,-77.117 -17.27,-11.711 -66.02,-53.051 -250.47,-66.621 -184.46,-13.571 -401.22,-18.469 -578.17,13.59 -135,117.82 -85.71,259.539 -85.71,259.539" /><path
         id="path112"
         style="fill:none;stroke:#100f0d;stroke-width:11.10470009;stroke-linecap:round;stroke-linejoin:round;stroke-miterlimit:10;stroke-dasharray:none;stroke-opacity:1"
         d="m 1748.98,415.93 c 0,0 71.63,4.48 108.64,31.011 37.02,26.528 155.47,127.098 252.32,157.938 96.86,30.84 228.26,61.703 355.97,-7.399 127.7,-69.109 179.53,-124.628 210.99,-200.511 9.88,-27.758 12.35,-66.617 9.88,-110.43 -2.48,-43.801 -6.17,-65.391 -23.45,-77.117 -17.27,-11.711 -66.02,-53.051 -250.47,-66.621 -184.46,-13.571 -401.22,-18.469 -578.17,13.59 -135,117.82 -85.71,259.539 -85.71,259.539 z" /><path
         id="path114"
         style="fill:#47241a;fill-opacity:1;fill-rule:nonzero;stroke:none"
         d="m 637.641,357.18 c 0,0 40.41,-10.778 66.324,-15.11 25.906,-4.332 170.273,-24.07 256.031,22.2 85.744,46.269 222.094,140.05 340.534,170.281 118.45,30.23 255.41,19.738 349.8,-47.5 32.27,-22.992 67.48,-44.391 98.65,-71.121 60.04,-51.489 105.09,-122.77 85.2,-263.258 -4.94,-26.543 -17.8,-36.402 -50.55,-53.0626 C 1750.89,82.9609 1573.21,-9.57813 1265.37,7.69922 957.52,24.9688 745.918,106.402 687.305,137.859 c -58.61,31.473 -49.2,33.321 -53.825,44.891 -4.632,11.57 -14.808,104.559 4.161,174.43" /><path
         id="path116"
         style="fill:none;stroke:#100f0d;stroke-width:11.10470009;stroke-linecap:round;stroke-linejoin:round;stroke-miterlimit:10;stroke-dasharray:none;stroke-opacity:1"
         d="m 637.641,357.18 c 0,0 40.41,-10.778 66.324,-15.11 25.906,-4.332 170.273,-24.07 256.031,22.2 85.744,46.269 222.094,140.05 340.534,170.281 118.45,30.23 255.41,19.738 349.8,-47.5 32.27,-22.992 67.48,-44.391 98.65,-71.121 60.04,-51.489 105.09,-122.77 85.2,-263.258 -4.94,-26.543 -17.8,-36.402 -50.55,-53.0626 C 1750.89,82.9609 1573.21,-9.57813 1265.37,7.69922 957.52,24.9688 745.918,106.402 687.305,137.859 c -58.61,31.473 -49.2,33.321 -53.825,44.891 -4.632,11.57 -14.808,104.559 4.161,174.43 z" /><path
         id="path118"
         style="fill:#ffffff;fill-opacity:1;fill-rule:nonzero;stroke:none"
         d="m 951.641,3849.16 c 0,0 -14.293,-0.93 -35.118,-28.23 -20.82,-27.3 -45.8,-58.76 -50.894,-90.69 -30.535,-12.49 -115.672,-45.8 -198.957,-91.14 -83.289,-45.35 -230.426,-145.76 -302.141,-206.37 -71.718,-60.61 -144.98,-130.01 -201.738,-208.36 -43.184,-18.52 -131.4063,-61.71 -107.3438,-166.58 -23.4414,-29 -101.1719,-121.54 3.086,-191.26 40.7187,28.39 227.6488,-553.38 227.6488,-553.38 0,0 -31.473,-27.75 -23.45,-93.14 8.024,-65.4 536.731,-331.3 536.731,-331.3 0,0 86.062,-75.88 324.815,-91.62 64.77,-24.98 186.93,-91.6 443.26,-72.17 123.09,-22.21 338.69,-62.01 645.93,55.52 29.61,-9.25 178.6,-36.09 370.15,59.23 78.67,29.61 159.16,66.63 231.35,130.48 72.18,63.84 111.06,189.7 110.12,289.64 -0.92,99.95 -26.84,295.21 -171.2,540.43 64.78,15.74 191.56,54.6 264.66,123.08 73.11,68.48 121.24,134.18 116.61,213.77 -4.63,79.58 -44.42,101.79 -74.04,117.52 -11.1,43.5 -41.64,124.01 -125.85,113.82 -39.79,39.79 -188.78,180.46 -434.94,293.35 -11.1,29.62 -30.82,105.53 -67.53,99.96 -1.29,-28.99 -2.71,-54.96 -2.71,-54.96 0,0 -61.16,-120.88 -115.76,-189.35 -54.59,-68.48 -172.12,-182.31 -268.35,-243.39 -69.4,-53.68 -68.2,-83.04 -73.29,-132.82 -0.62,-5.99 -1.32,-12.28 -2.26,-18.94 -40.14,47.19 -64.2,78.66 -125.27,97.17 -61.08,18.51 -205.43,61.07 -305.38,107.34 -99.95,46.27 -253.56,135.11 -342.4,213.77 -88.84,78.65 -178.05,160.98 -244.028,267.42 -0.493,20.35 -1.711,41.2 -1.711,41.2" /><path
         id="path120"
         style="fill:none;stroke:#100f0d;stroke-width:11.10470009;stroke-linecap:round;stroke-linejoin:round;stroke-miterlimit:10;stroke-dasharray:none;stroke-opacity:1"
         d="m 951.641,3849.16 c 0,0 -14.293,-0.93 -35.118,-28.23 -20.82,-27.3 -45.8,-58.76 -50.894,-90.69 -30.535,-12.49 -115.672,-45.8 -198.957,-91.14 -83.289,-45.35 -230.426,-145.76 -302.141,-206.37 -71.718,-60.61 -144.98,-130.01 -201.738,-208.36 -43.184,-18.52 -131.4063,-61.71 -107.3438,-166.58 -23.4414,-29 -101.1719,-121.54 3.086,-191.26 40.7187,28.39 227.6488,-553.38 227.6488,-553.38 0,0 -31.473,-27.75 -23.45,-93.14 8.024,-65.4 536.731,-331.3 536.731,-331.3 0,0 86.062,-75.88 324.815,-91.62 64.77,-24.98 186.93,-91.6 443.26,-72.17 123.09,-22.21 338.69,-62.01 645.93,55.52 29.61,-9.25 178.6,-36.09 370.15,59.23 78.67,29.61 159.16,66.63 231.35,130.48 72.18,63.84 111.06,189.7 110.12,289.64 -0.92,99.95 -26.84,295.21 -171.2,540.43 64.78,15.74 191.56,54.6 264.66,123.08 73.11,68.48 121.24,134.18 116.61,213.77 -4.63,79.58 -44.42,101.79 -74.04,117.52 -11.1,43.5 -41.64,124.01 -125.85,113.82 -39.79,39.79 -188.78,180.46 -434.94,293.35 -11.1,29.62 -30.82,105.53 -67.53,99.96 -1.29,-28.99 -2.71,-54.96 -2.71,-54.96 0,0 -61.16,-120.88 -115.76,-189.35 -54.59,-68.48 -172.12,-182.31 -268.35,-243.39 -69.4,-53.68 -68.2,-83.04 -73.29,-132.82 -0.62,-5.99 -1.32,-12.28 -2.26,-18.94 -40.14,47.19 -64.2,78.66 -125.27,97.17 -61.08,18.51 -205.43,61.07 -305.38,107.34 -99.95,46.27 -253.56,135.11 -342.4,213.77 -88.84,78.65 -178.05,160.98 -244.028,267.42 -0.493,20.35 -1.711,41.2 -1.711,41.2 z" /><path
         id="path122"
         style="fill:none;stroke:#100f0d;stroke-width:11.10470009;stroke-linecap:round;stroke-linejoin:round;stroke-miterlimit:10;stroke-dasharray:none;stroke-opacity:1"
         d="m 852.797,3730.24 c 0,0 81.898,-136.95 215.153,-267.44 133.26,-130.48 378.49,-304.14 677.38,-409.33 4.63,53.06 21.29,103.03 58.3,122.46 37.02,19.44 81.14,26.58 130.33,-26.04" /><path
         id="path124"
         style="fill:none;stroke:#100f0d;stroke-width:11.10470009;stroke-linecap:round;stroke-linejoin:round;stroke-miterlimit:10;stroke-dasharray:none;stroke-opacity:1"
         d="m 1961.99,3162.45 c 0,0 8.22,51.89 41.99,61.14 33.78,9.26 73.11,6.48 127.71,-84.21 37.01,35.17 111.05,109.19 149.45,158.24 38.41,49.05 195.87,237.06 206.37,364.14" /><path
         id="path126"
         style="fill:none;stroke:#100f0d;stroke-width:11.10470009;stroke-linecap:round;stroke-linejoin:round;stroke-miterlimit:10;stroke-dasharray:none;stroke-opacity:1"
         d="m 2530.1,3339.65 c 0,0 9.88,-65.4 13.57,-109.82 3.71,-44.41 8.63,-81.11 12.95,-90.53 4.32,-9.41 34.56,-62.46 67.87,-116.14 33.31,-53.67 130.17,-223.01 130.17,-223.01" /><path
         id="path128"
         style="fill:none;stroke:#100f0d;stroke-width:11.10470009;stroke-linecap:round;stroke-linejoin:round;stroke-miterlimit:10;stroke-dasharray:none;stroke-opacity:1"
         d="m 2697.56,2899.32 c 0,0 114.47,38.71 160.75,87.76 46.27,49.04 187.85,231.34 77.73,381.25" /><path
         id="path130"
         style="fill:none;stroke:#100f0d;stroke-width:11.10470009;stroke-linecap:round;stroke-linejoin:round;stroke-miterlimit:10;stroke-dasharray:none;stroke-opacity:1"
         d="m 3060.1,3254.59 c 0,0 3.69,-98.09 -42.58,-173.97" /><path
         id="path132"
         style="fill:none;stroke:#100f0d;stroke-width:11.10470009;stroke-linecap:round;stroke-linejoin:round;stroke-miterlimit:10;stroke-dasharray:none;stroke-opacity:1"
         d="m 162.793,3224.37 c 0,0 115.941,43.79 278.812,10.48 162.872,-33.31 288.727,-82.36 382.188,-235.05 93.469,-152.69 47.199,-245.23 25.914,-251.71 -3.699,-37.02 -5.551,-68.48 -26.836,-104.57" /><path
         id="path134"
         style="fill:none;stroke:#100f0d;stroke-width:11.10470009;stroke-linecap:round;stroke-linejoin:round;stroke-miterlimit:10;stroke-dasharray:none;stroke-opacity:1"
         d="m 808.73,2874.9 c 0,0 37.012,-49.96 40.719,-128.63" /><path
         id="path136"
         style="fill:none;stroke:#100f0d;stroke-width:11.10470009;stroke-linecap:round;stroke-linejoin:round;stroke-miterlimit:10;stroke-dasharray:none;stroke-opacity:1"
         d="m 880.105,2851.58 c 0,0 80.653,62.01 168.565,199.89" /><path
         id="path138"
         style="fill:none;stroke:#100f0d;stroke-width:11.10470009;stroke-linecap:round;stroke-linejoin:round;stroke-miterlimit:10;stroke-dasharray:none;stroke-opacity:1"
         d="m 145.875,3117.32 c 0,0 -52.4531,-24.48 -90.625,-59.22" /><path
         id="path140"
         style="fill:none;stroke:#100f0d;stroke-width:11.10470009;stroke-linecap:round;stroke-linejoin:round;stroke-miterlimit:10;stroke-dasharray:none;stroke-opacity:1"
         d="m 1958.79,3045.45 c 0,-15.47 -11.82,-28.02 -26.43,-28.02 -14.59,0 -26.42,12.55 -26.42,28.02 0,15.48 11.83,28.03 26.42,28.03 14.61,0 26.43,-12.55 26.43,-28.03 z" /><path
         id="path142"
         style="fill:none;stroke:#100f0d;stroke-width:11.10470009;stroke-linecap:round;stroke-linejoin:round;stroke-miterlimit:10;stroke-dasharray:none;stroke-opacity:1"
         d="m 2097.19,2734.79 c 0,-15.48 -11.82,-28.02 -26.43,-28.02 -14.59,0 -26.42,12.54 -26.42,28.02 0,15.48 11.83,28.02 26.42,28.02 14.61,0 26.43,-12.54 26.43,-28.02 z" /><path
         id="path144"
         style="fill:none;stroke:#100f0d;stroke-width:11.10470009;stroke-linecap:round;stroke-linejoin:round;stroke-miterlimit:10;stroke-dasharray:none;stroke-opacity:1"
         d="m 2275.94,2367.69 c 0,-15.48 -11.83,-28.03 -26.43,-28.03 -14.6,0 -26.42,12.55 -26.42,28.03 0,15.47 11.82,28.01 26.42,28.01 14.6,0 26.43,-12.54 26.43,-28.01 z" /><path
         id="path146"
         style="fill:none;stroke:#100f0d;stroke-width:11.10470009;stroke-linecap:round;stroke-linejoin:round;stroke-miterlimit:10;stroke-dasharray:none;stroke-opacity:1"
         d="m 2287.98,1982.75 c 0,-15.46 -11.83,-28.01 -26.43,-28.01 -14.59,0 -26.42,12.55 -26.42,28.01 0,15.48 11.83,28.02 26.42,28.02 14.6,0 26.43,-12.54 26.43,-28.02 z" /><path
         id="path148"
         style="fill:none;stroke:#100f0d;stroke-width:11.10470009;stroke-linecap:round;stroke-linejoin:round;stroke-miterlimit:10;stroke-dasharray:none;stroke-opacity:1"
         d="m 1957.6,3122.26 c 0,0 30.19,-70.64 76.46,-169.34 46.27,-98.71 94.4,-198.04 133.87,-272.69 39.48,-74.64 104.87,-176.43 133.26,-261.57 28.39,-85.14 45.65,-172.13 39.48,-281.94 -6.17,-109.82 -24.05,-270.22 -140.04,-356.28" /><path
         id="path150"
         style="fill:none;stroke:#100f0d;stroke-width:11.10470009;stroke-linecap:round;stroke-linejoin:round;stroke-miterlimit:10;stroke-dasharray:none;stroke-opacity:1"
         d="m 2729.96,2024.43 c 0,0 -17.22,-96.71 -190.6,-199.5" /><path
         id="path152"
         style="fill:none;stroke:#100f0d;stroke-width:11.10470009;stroke-linecap:round;stroke-linejoin:round;stroke-miterlimit:10;stroke-dasharray:none;stroke-opacity:1"
         d="m 2129.69,2706.77 c 0,0 60.47,16.65 102.41,18.5" /><path
         id="path154"
         style="fill:none;stroke:#100f0d;stroke-width:11.10470009;stroke-linecap:round;stroke-linejoin:round;stroke-miterlimit:10;stroke-dasharray:none;stroke-opacity:1"
         d="m 2113.65,2654.94 c 0,0 86.98,49.37 191.87,51.83" /><path
         id="path156"
         style="fill:#f8a69e;fill-opacity:1;fill-rule:nonzero;stroke:none"
         d="m 62.2344,2911.58 c 0,0 30.2304,66.63 143.1246,104.88 112.903,38.24 259.735,47.5 366.457,-4.94 106.731,-52.44 180.141,-146.83 210.993,-239.38 30.843,-92.54 50.589,-163.49 68.48,-229.49 17.887,-66.01 79.578,-230.73 69.707,-376.95 -9.867,-146.2 -31.461,-223.32 -86.988,-283.17 -55.524,-59.83 -141.883,-104.25 -209.75,-33.31 -33.938,-16.04 -99.332,-42.57 -144.981,26.52 -22.211,-9.25 -75.261,-20.96 -123.382,30.85 -48.122,51.83 -29.618,141.91 -29.618,141.91 0,0 -49.968,-1.23 -98.711,27.75 -48.734,28.99 -62.921,77.73 -41.945,114.13 20.977,36.41 89.457,26.53 113.516,29.62 24.054,3.08 39.48,23.45 39.48,23.45 0,0 -62.926,72.17 -111.66,151.76 -48.738,79.58 -132.0273,231.35 -150.5312,355.04 -18.5117,123.7 -14.1914,161.33 -14.1914,161.33" /><path
         id="path158"
         style="fill:none;stroke:#100f0d;stroke-width:11.10470009;stroke-linecap:round;stroke-linejoin:round;stroke-miterlimit:10;stroke-dasharray:none;stroke-opacity:1"
         d="m 62.2344,2911.58 c 0,0 30.2304,66.63 143.1246,104.88 112.903,38.24 259.735,47.5 366.457,-4.94 106.731,-52.44 180.141,-146.83 210.993,-239.38 30.843,-92.54 50.589,-163.49 68.48,-229.49 17.887,-66.01 79.578,-230.73 69.707,-376.95 -9.867,-146.2 -31.461,-223.32 -86.988,-283.17 -55.524,-59.83 -141.883,-104.25 -209.75,-33.31 -33.938,-16.04 -99.332,-42.57 -144.981,26.52 -22.211,-9.25 -75.261,-20.96 -123.382,30.85 -48.122,51.83 -29.618,141.91 -29.618,141.91 0,0 -49.968,-1.23 -98.711,27.75 -48.734,28.99 -62.921,77.73 -41.945,114.13 20.977,36.41 89.457,26.53 113.516,29.62 24.054,3.08 39.48,23.45 39.48,23.45 0,0 -62.926,72.17 -111.66,151.76 -48.738,79.58 -132.0273,231.35 -150.5312,355.04 -18.5117,123.7 -14.1914,161.33 -14.1914,161.33 z" /><path
         id="path160"
         style="fill:none;stroke:#100f0d;stroke-width:11.10470009;stroke-linecap:round;stroke-linejoin:round;stroke-miterlimit:10;stroke-dasharray:none;stroke-opacity:1"
         d="m 357.645,2217.47 c 0,0 -9.661,14.77 -18.973,25.74" /><path
         id="path162"
         style="fill:none;stroke:#100f0d;stroke-width:11.10470009;stroke-linecap:round;stroke-linejoin:round;stroke-miterlimit:10;stroke-dasharray:none;stroke-opacity:1"
         d="m 606.484,2240.35 c 0,0 -64.16,-64.15 0,-182.61" /><path
         id="path164"
         style="fill:none;stroke:#100f0d;stroke-width:11.10470009;stroke-linecap:round;stroke-linejoin:round;stroke-miterlimit:10;stroke-dasharray:none;stroke-opacity:1"
         d="m 313.445,2048.5 c 0,0 8.176,38.71 40.106,61.84 31.922,23.14 97.164,28.68 117.054,-55.53" /><path
         id="path166"
         style="fill:none;stroke:#100f0d;stroke-width:11.10470009;stroke-linecap:round;stroke-linejoin:round;stroke-miterlimit:10;stroke-dasharray:none;stroke-opacity:1"
         d="m 466.445,1875.74 c 0,0 -18.507,40.73 -16.66,99.96 1.856,59.23 24.528,105.03 78.199,103.65 53.672,-1.39 71.254,-58.76 76.34,-71.26" /><path
         id="path168"
         style="fill:none;stroke:#100f0d;stroke-width:11.10470009;stroke-linecap:round;stroke-linejoin:round;stroke-miterlimit:10;stroke-dasharray:none;stroke-opacity:1"
         d="m 611.422,1849.22 c 0,0 -22.512,20.99 -19.195,92.24 3.308,71.25 27.832,103.19 73.64,102.72 45.809,-0.47 79.582,-38.87 77.27,-100.87 -2.785,-30.96 -2.551,-41.64 0.117,-45.35" /><path
         id="path170"
         style="fill:none;stroke:#100f0d;stroke-width:11.10470009;stroke-linecap:round;stroke-linejoin:round;stroke-miterlimit:10;stroke-dasharray:none;stroke-opacity:1"
         d="m 2965.01,2099.24 c 0,0 4.16,23.13 2.77,51.82 13.42,24.53 32.4,68.01 32.4,68.01" /><path
         id="path172"
         style="fill:none;stroke:#100f0d;stroke-width:11.10470009;stroke-linecap:round;stroke-linejoin:round;stroke-miterlimit:10;stroke-dasharray:none;stroke-opacity:1"
         d="m 2836.84,2008.77 c 0,0 12.04,-13.63 32.85,-25.66" /><path
         id="path174"
         style="fill:none;stroke:#100f0d;stroke-width:11.10470009;stroke-linecap:round;stroke-linejoin:round;stroke-miterlimit:10;stroke-dasharray:none;stroke-opacity:1"
         d="m 1025.38,1867.42 c 0,0 54.6,-48.1 86.06,-70.33" /><path
         id="path176"
         style="fill:none;stroke:#100f0d;stroke-width:11.10470009;stroke-linecap:round;stroke-linejoin:round;stroke-miterlimit:10;stroke-dasharray:none;stroke-opacity:1"
         d="m 1383.51,1827.64 c 0,0 89.76,-83.29 171.2,-102.72" /></g></g></svg>